<svg width="973" height="642" viewBox="0 0 973 642" fill="none" xmlns="http://www.w3.org/2000/svg">
<g filter="url(#filter0_d_31_184)">
<path d="M14.8281 330.928V284.267H41.9663L41.3044 133.695H14.8281V87.034H127.352V133.695H100.545L99.883 284.267H127.352V330.928H14.8281ZM163.731 330.928V87.034H349.065V137.335H225.619V182.341H336.82V229.002H225.619V280.627H349.065V330.928H163.731ZM388.674 330.928V87.034H450.562V280.627H562.424V330.928H388.674ZM598.229 330.928V137.335H530.053V87.034H728.294V137.335H660.118V330.928H598.229ZM747.132 330.928V281.289H874.217L885.801 269.706V242.57L874.217 230.988H774.27L737.534 193.924V123.767L774.27 87.034H933.789V136.673H810.012L798.429 148.256V169.766L810.012 181.348H909.96L946.696 218.081V294.195L909.96 330.928H747.132Z" fill="#F70000"/>
</g>
<path d="M167.838 512.687C166.038 525.887 164.688 539.316 163.788 552.967C155.536 555.366 147.134 557.544 138.582 559.493C130.03 561.442 120.879 562.418 111.126 562.418C94.4729 562.418 79.9947 559.119 67.6922 552.517C55.5396 545.915 46.0876 536.689 39.3362 524.838C32.5847 512.836 29.209 498.735 29.209 482.532C29.209 466.181 32.5847 451.779 39.3362 439.327C46.0876 426.725 55.6144 416.9 67.9172 409.847C80.2197 402.795 94.6979 399.271 111.351 399.271C117.503 399.271 122.904 399.645 127.555 400.396C132.206 401.147 137.832 402.273 144.433 403.772C147.434 404.371 150.06 404.973 152.31 405.572C154.561 406.171 156.886 406.472 159.287 406.472C160.037 406.472 160.862 406.472 161.762 406.472C162.662 406.323 163.413 406.171 164.013 406.022C164.313 412.624 164.613 419.448 164.913 426.5C165.213 433.552 165.663 440.902 166.263 448.553C163.262 449.003 160.712 449.152 158.611 449.003C152.76 421.85 137.382 408.272 112.477 408.272C102.424 408.272 93.8725 410.298 86.8212 414.348C79.7696 418.25 74.0683 423.651 69.7176 430.55C65.3666 437.301 62.2159 444.952 60.2656 453.503C58.315 462.055 57.34 470.98 57.34 480.282C57.34 493.483 59.2903 505.635 63.1912 516.737C67.0918 527.84 73.2433 536.689 81.6451 543.291C90.0467 549.893 100.849 553.192 114.052 553.192C126.505 553.192 136.407 549.893 143.758 543.291C151.26 536.689 156.661 526.414 159.962 512.462C161.162 512.462 162.362 512.462 163.562 512.462C164.913 512.462 166.338 512.538 167.838 512.687ZM255.09 559.493C254.79 557.094 254.79 554.767 255.09 552.517C259.741 552.216 263.192 551.766 265.442 551.167C267.693 550.416 269.193 548.917 269.943 546.666C270.693 544.416 271.068 540.815 271.068 535.865V490.409C271.068 481.407 269.643 474.733 266.792 470.381C264.092 465.88 258.616 463.63 250.364 463.63C246.013 463.63 241.812 464.454 237.761 466.105C233.71 467.604 229.359 470.457 224.709 474.656V533.615C224.709 539.465 225.009 543.665 225.609 546.216C226.359 548.768 227.784 550.416 229.885 551.167C232.135 551.766 235.586 552.216 240.237 552.517C240.987 554.767 240.987 557.094 240.237 559.493C236.486 559.493 232.36 559.417 227.859 559.268C223.358 559.119 218.332 559.043 212.781 559.043C207.23 559.043 202.279 559.119 197.928 559.268C193.577 559.417 189.151 559.493 184.65 559.493C184.2 557.094 184.2 554.767 184.65 552.517C189.751 552.216 193.502 551.766 195.902 551.167C198.303 550.416 199.878 548.917 200.628 546.666C201.379 544.416 201.754 540.815 201.754 535.865V427.4C201.754 423.048 201.679 419.6 201.529 417.048C201.379 414.348 200.704 412.247 199.503 410.748C198.303 409.096 196.578 407.971 194.327 407.372C192.077 406.621 188.476 406.022 183.525 405.572C183.075 403.623 183.075 401.597 183.525 399.496C189.526 398.745 195.602 397.62 201.754 396.121C207.905 394.469 214.432 392.219 221.333 389.37L225.159 390.72C225.009 394.019 224.859 397.772 224.709 401.971C224.709 406.022 224.709 410.523 224.709 415.473V465.43C231.46 459.129 238.062 454.778 244.513 452.378C251.114 449.827 257.416 448.553 263.417 448.553C273.319 448.553 280.895 451.478 286.147 457.329C291.398 463.18 294.023 471.582 294.023 482.532V533.615C294.023 539.465 294.323 543.665 294.923 546.216C295.674 548.768 297.174 550.416 299.424 551.167C301.675 551.766 305.276 552.216 310.227 552.517C310.527 554.767 310.527 557.094 310.227 559.493C305.726 559.493 301.3 559.417 296.949 559.268C292.748 559.119 287.797 559.043 282.096 559.043C276.545 559.043 271.668 559.119 267.468 559.268C263.417 559.417 259.291 559.493 255.09 559.493ZM400.403 561.518C390.5 561.518 384.275 556.568 381.724 546.666C371.074 556.869 360.195 561.968 349.092 561.968C341.44 561.968 334.914 559.718 329.514 555.217C324.263 550.568 321.637 544.191 321.637 536.09C321.637 516.287 341.817 503.834 382.174 498.735C382.174 495.134 382.174 491.458 382.174 487.708C382.326 483.959 382.399 479.981 382.399 475.782C382.399 470.53 380.449 466.479 376.548 463.63C372.798 460.628 368.221 459.129 362.82 459.129C358.921 459.129 355.618 459.728 352.918 460.93C352.918 464.381 352.17 467.905 350.667 471.506C349.168 475.106 347.066 478.181 344.366 480.732C341.817 483.131 338.667 484.333 334.914 484.333C331.614 484.333 328.989 483.433 327.038 481.632C325.238 479.683 324.338 477.357 324.338 474.656C324.338 471.056 325.988 467.68 329.289 464.53C332.739 461.231 337.091 458.454 342.34 456.204C347.593 453.805 353.07 451.928 358.769 450.578C364.471 449.228 369.571 448.553 374.072 448.553C379.625 448.553 384.725 449.602 389.375 451.703C394.177 453.652 398.003 456.654 400.853 460.704C403.854 464.606 405.354 469.481 405.354 475.332C405.354 478.932 405.281 483.658 405.129 489.508C404.98 495.21 404.831 501.359 404.678 507.961C404.678 514.411 404.606 520.563 404.453 526.414C404.305 532.264 404.228 536.99 404.228 540.59C404.228 545.392 406.33 547.791 410.53 547.791C413.23 547.791 417.357 546.891 422.907 545.091C423.51 545.842 423.884 546.666 424.033 547.566C424.334 548.467 424.559 549.291 424.708 550.042C420.958 554.092 416.983 557.018 412.78 558.818C408.729 560.618 404.606 561.518 400.403 561.518ZM381.724 540.59L382.174 506.836C368.373 508.636 358.845 511.561 353.593 515.612C348.493 519.663 345.941 524.838 345.941 531.139C345.941 536.391 347.291 540.442 349.992 543.291C352.845 545.991 356.369 547.341 360.569 547.341C363.27 547.341 366.271 546.742 369.571 545.541C373.023 544.34 377.074 542.692 381.724 540.59ZM567.878 559.493C567.428 557.094 567.428 554.767 567.878 552.517C572.379 552.216 575.754 551.766 578.005 551.167C580.255 550.416 581.755 548.917 582.506 546.666C583.406 544.416 583.856 540.815 583.856 535.865V490.409C583.856 481.556 582.506 474.881 579.805 470.381C577.254 465.88 571.929 463.63 563.827 463.63C553.773 463.63 545.221 467.379 538.171 474.881C538.469 477.281 538.622 479.832 538.622 482.532V533.615C538.622 539.465 538.919 543.665 539.522 546.216C540.27 548.768 541.772 550.416 544.023 551.167C546.273 551.766 549.722 552.216 554.375 552.517C554.673 554.767 554.673 557.094 554.375 559.493C550.172 559.493 545.972 559.417 541.772 559.268C537.569 559.119 532.618 559.043 526.919 559.043C521.366 559.043 516.491 559.119 512.291 559.268C508.24 559.417 504.338 559.493 500.589 559.493C500.138 557.094 500.138 554.767 500.589 552.517C504.937 552.216 508.164 551.766 510.266 551.167C512.516 550.416 514.015 548.917 514.767 546.666C515.514 544.416 515.892 540.815 515.892 535.865V490.409C515.892 481.556 514.614 474.881 512.066 470.381C509.514 465.88 504.113 463.63 495.862 463.63C486.41 463.63 478.157 467.455 471.107 475.106V533.615C471.107 539.465 471.405 543.665 472.007 546.216C472.755 548.768 474.258 550.416 476.508 551.167C478.908 551.766 482.509 552.216 487.311 552.517C487.609 554.767 487.609 557.094 487.311 559.493C483.108 559.493 478.759 559.417 474.258 559.268C469.906 559.119 464.879 559.043 459.18 559.043C453.779 559.043 448.9 559.119 444.552 559.268C440.2 559.417 435.775 559.493 431.274 559.493C430.824 557.094 430.824 554.767 431.274 552.517C436.374 552.216 440.123 551.766 442.526 551.167C444.926 550.416 446.501 548.917 447.252 546.666C448 544.416 448.377 540.815 448.377 535.865V485.458C448.377 479.607 448.076 475.255 447.477 472.406C447.027 469.557 445.601 467.604 443.201 466.555C440.951 465.354 437.049 464.381 431.499 463.63C431.049 461.529 431.049 459.579 431.499 457.779C437.8 456.578 443.877 455.155 449.728 453.503C455.579 451.852 461.354 449.827 467.056 447.428L470.882 448.778V465.43C483.035 454.179 495.71 448.553 508.915 448.553C517.166 448.553 523.391 450.277 527.594 453.729C531.794 457.18 534.72 461.456 536.371 466.555C542.821 460.403 549.424 455.903 556.175 453.053C562.927 450.052 569.751 448.553 576.655 448.553C586.557 448.553 593.983 451.478 598.934 457.329C604.034 463.18 606.586 471.582 606.586 482.532V533.615C606.586 539.465 606.884 543.665 607.486 546.216C608.085 548.768 609.512 550.416 611.762 551.167C614.013 551.766 617.461 552.216 622.114 552.517C622.564 554.767 622.564 557.094 622.114 559.493C617.911 559.493 613.711 559.417 609.512 559.268C605.308 559.119 600.434 559.043 594.883 559.043C589.181 559.043 584.154 559.119 579.805 559.268C575.602 559.417 571.627 559.493 567.878 559.493ZM690.863 561.968C685.161 561.968 679.534 561.217 673.984 559.718C668.431 558.219 662.881 556.041 657.331 553.192C656.278 554.542 655.229 555.816 654.18 557.018C653.128 558.219 652.155 559.493 651.255 560.843C650.202 560.694 649.153 560.542 648.104 560.393C647.204 560.244 646.376 560.092 645.628 559.943C645.926 557.243 646.078 553.718 646.078 549.367C646.078 544.866 646.078 539.614 646.078 533.615V423.124C646.078 418.475 645.628 415.023 644.728 412.773C643.828 410.374 642.028 408.722 639.327 407.822C636.775 406.773 632.873 406.022 627.625 405.572C627.174 403.623 627.174 401.597 627.625 399.496C633.625 398.745 639.777 397.62 646.078 396.121C652.38 394.469 658.83 392.219 665.433 389.37L669.258 390.72C669.106 394.019 668.957 397.772 668.808 401.971C668.808 406.171 668.808 410.748 668.808 415.698V463.63C674.957 458.08 680.885 454.179 686.587 451.928C692.438 449.678 698.137 448.553 703.691 448.553C713.143 448.553 721.168 451.104 727.771 456.204C734.522 461.155 739.622 467.68 743.074 475.782C746.675 483.734 748.475 492.285 748.475 501.435C748.475 512.088 746 522.062 741.049 531.364C736.246 540.514 729.495 547.94 720.794 553.642C712.242 559.192 702.264 561.968 690.863 561.968ZM668.583 473.531V541.491C675.484 549.291 683.81 553.192 693.564 553.192C701.215 553.192 707.364 551.091 712.017 546.891C716.667 542.692 719.967 537.215 721.92 530.464C724.018 523.713 725.07 516.588 725.07 509.086C725.07 501.736 724.018 494.535 721.92 487.483C719.967 480.282 716.667 474.355 712.017 469.706C707.516 464.904 701.288 462.505 693.339 462.505C688.986 462.505 684.711 463.405 680.511 465.205C676.308 467.005 672.333 469.782 668.583 473.531ZM815.781 561.968C805.128 561.968 796.126 559.493 788.775 554.542C781.422 549.592 775.795 542.99 771.897 534.74C768.144 526.337 766.271 517.111 766.271 507.061C766.271 496.709 768.22 487.109 772.122 478.257C776.173 469.405 782.024 462.28 789.675 456.879C797.327 451.329 806.627 448.553 817.581 448.553C830.783 448.553 841.059 452.527 848.413 460.479C855.912 468.279 859.665 478.406 859.665 490.859C859.665 492.358 859.589 493.708 859.44 494.909C859.44 495.958 859.364 496.858 859.215 497.61L788.325 496.934C788.325 497.533 788.325 498.06 788.325 498.51C788.325 513.213 791.701 524.762 798.452 533.164C805.204 541.567 814.656 545.766 826.808 545.766C837.008 545.766 847.063 542.467 856.965 535.865C858.464 537.665 859.589 539.389 860.34 541.041C847.586 554.992 832.732 561.968 815.781 561.968ZM789 488.608L835.585 487.708C835.734 487.407 835.81 487.033 835.81 486.583C835.81 485.984 835.81 485.607 835.81 485.458C835.81 477.357 834.01 470.606 830.409 465.205C826.957 459.804 821.781 457.104 814.881 457.104C808.427 457.104 802.801 459.728 798.002 464.98C793.2 470.232 790.198 478.108 789 488.608ZM875.435 559.493C874.985 557.094 874.985 554.767 875.435 552.517C880.535 552.216 884.285 551.766 886.688 551.167C889.087 550.416 890.662 548.917 891.413 546.666C892.161 544.416 892.539 540.815 892.539 535.865V485.458C892.539 479.607 892.237 475.255 891.638 472.406C891.188 469.557 889.762 467.604 887.363 466.555C885.112 465.354 881.21 464.381 875.66 463.63C875.21 461.529 875.21 459.579 875.66 457.779C881.66 456.578 887.512 455.228 893.214 453.729C898.913 452.077 904.916 449.979 911.218 447.428L915.044 448.778V468.581C925.545 455.228 936.271 448.553 947.225 448.553C952.474 448.553 956.376 449.979 958.928 452.828C961.476 455.529 962.754 458.603 962.754 462.055C962.754 466.105 961.403 469.256 958.703 471.506C956.002 473.607 952.924 474.656 949.476 474.656C946.623 474.656 943.773 473.905 940.924 472.406C938.223 470.907 936.198 468.581 934.848 465.43C929.744 465.43 925.171 467.455 921.12 471.506C917.218 475.408 915.269 479.981 915.269 485.233V533.615C915.269 539.465 915.566 543.665 916.169 546.216C916.917 548.768 918.717 550.416 921.57 551.167C924.568 551.766 929.37 552.216 935.973 552.517C936.271 554.619 936.271 556.942 935.973 559.493C930.87 559.493 925.621 559.417 920.22 559.268C914.818 559.119 909.265 559.043 903.566 559.043C898.013 559.043 893.062 559.119 888.713 559.268C884.51 559.417 880.085 559.493 875.435 559.493Z" fill="black"/>
<defs>
<filter id="filter0_d_31_184" x="13.8281" y="87.034" width="939.868" height="253.894" filterUnits="userSpaceOnUse" color-interpolation-filters="sRGB">
<feFlood flood-opacity="0" result="BackgroundImageFix"/>
<feColorMatrix in="SourceAlpha" type="matrix" values="0 0 0 0 0 0 0 0 0 0 0 0 0 0 0 0 0 0 127 0" result="hardAlpha"/>
<feOffset dx="3" dy="6"/>
<feGaussianBlur stdDeviation="2"/>
<feComposite in2="hardAlpha" operator="out"/>
<feColorMatrix type="matrix" values="0 0 0 0 0 0 0 0 0 0 0 0 0 0 0 0 0 0 0.25 0"/>
<feBlend mode="normal" in2="BackgroundImageFix" result="effect1_dropShadow_31_184"/>
<feBlend mode="normal" in="SourceGraphic" in2="effect1_dropShadow_31_184" result="shape"/>
</filter>
</defs>
</svg>
